<svg xmlns="http://www.w3.org/2000/svg" viewBox="0 0 351 188"><defs><style>.a{fill:#e2e2e2;}.b{opacity:0.29;}.c{fill:#fff;}.d{fill:#141414;}.e{fill:#303030;}</style></defs><title>3d.io_title</title><rect class="a" x="-1022" y="-636" width="2984" height="4931"/><rect class="b" x="-134" y="-225" width="1400" height="4403"/><rect class="c" x="-147" y="-237" width="1400" height="4403"/><path class="d" d="M61.18,76.18a39.64,39.64,0,0,0-11.77-8.07,39.12,39.12,0,0,0-11-3.11c4.6-6.4,9.31-12.79,14-19C57.9,38.79,63.39,31.41,68.78,24a2,2,0,0,0-1.62-3.18H9.42a2,2,0,0,0-2,2v6.34a2,2,0,0,0,2,2h42.4c-4.82,6.71-9.75,13.5-14.7,20.23-5.55,7.55-11.27,15.43-17,23.43a2,2,0,0,0,2.8,2.78,16.17,16.17,0,0,1,9.74-3.32,28.65,28.65,0,0,1,11.19,2.22,30.37,30.37,0,0,1,9.25,6,28.25,28.25,0,0,1,6.25,9,27.09,27.09,0,0,1,2.29,11.07,26.66,26.66,0,0,1-2.29,10.89,29.25,29.25,0,0,1-6.26,9.07,30.79,30.79,0,0,1-9.26,6.2,27.67,27.67,0,0,1-11.17,2.3,24,24,0,0,1-11.39-2.76,30,30,0,0,1-8.92-7.09,2,2,0,0,0-2.94-.12l-4.75,4.75a2,2,0,0,0,0,2.78,41.43,41.43,0,0,0,12.58,9.16,37,37,0,0,0,16,3.45,37.58,37.58,0,0,0,15.06-3.07,39.58,39.58,0,0,0,20.66-20.57,38.41,38.41,0,0,0,.18-29.68A37.41,37.41,0,0,0,61.18,76.18Z"/><path class="d" d="M157.3,2.36h-6.16a2,2,0,0,0-2,2V79.7q-.46-.6-1-1.19a37,37,0,0,0-7.07-6.42,33.36,33.36,0,0,0-9.08-4.4,36,36,0,0,0-10.81-1.59A37.15,37.15,0,0,0,106.61,69a38.17,38.17,0,0,0-11.89,7.9,36.14,36.14,0,0,0-8,11.92,39.59,39.59,0,0,0-.09,29.44,35.93,35.93,0,0,0,7.83,11.83,38.29,38.29,0,0,0,11.79,8,36.64,36.64,0,0,0,14.8,3,34.48,34.48,0,0,0,20-5.81,37.72,37.72,0,0,0,8.16-7.51q0,.9,0,1.82v8.27a2,2,0,0,0,2,2h6.16a2,2,0,0,0,2-2V4.36A2,2,0,0,0,157.3,2.36Zm-35.74,128.7a27.86,27.86,0,0,1-10.85-2.13A27.12,27.12,0,0,1,94,103.65a27.88,27.88,0,0,1,2.13-10.85,26.51,26.51,0,0,1,14.6-14.6,28.64,28.64,0,0,1,21.69,0A26.51,26.51,0,0,1,147,92.81a27.93,27.93,0,0,1,2.13,10.85,26.94,26.94,0,0,1-16.73,25.27A27.88,27.88,0,0,1,121.56,131.06Z"/><path class="d" d="M181.61,125.07a7,7,0,0,0-5.11,2.17,7.23,7.23,0,0,0-2.17,5.29,7,7,0,0,0,2.21,5.24,7.31,7.31,0,0,0,10.14,0,7,7,0,0,0,2.21-5.24,7.23,7.23,0,0,0-2.17-5.29A7,7,0,0,0,181.61,125.07Z"/><path class="d" d="M209.09,38.45A7,7,0,0,0,204,40.62a7.23,7.23,0,0,0-2.17,5.29A7,7,0,0,0,204,51.15a7.17,7.17,0,0,0,5.07,2,7.26,7.26,0,0,0,7.11-7.28A7.23,7.23,0,0,0,214,40.62,6.83,6.83,0,0,0,209.09,38.45Z"/><rect class="d" x="203.92" y="67.68" width="9.99" height="72.13" rx="2" ry="2"/><path class="d" d="M297.35,89h0A37.88,37.88,0,0,0,277.29,68.9a37.74,37.74,0,0,0-29.4,0A37.88,37.88,0,0,0,227.83,89a38,38,0,0,0,0,29.5,38.28,38.28,0,0,0,8,11.79,36.83,36.83,0,0,0,11.91,7.91A37.78,37.78,0,0,0,262.41,141a37.28,37.28,0,0,0,14.88-3,39.17,39.17,0,0,0,12-8,37.61,37.61,0,0,0,8.09-11.8,36.21,36.21,0,0,0,3-14.62A36.84,36.84,0,0,0,297.35,89Zm-34.93,42.1a27.53,27.53,0,0,1-25.27-38.15A28.5,28.5,0,0,1,243,84.1a26.75,26.75,0,0,1,8.69-5.9,28.2,28.2,0,0,1,21.49,0,27.58,27.58,0,0,1,14.7,14.7,28.2,28.2,0,0,1,0,21.5,26.74,26.74,0,0,1-5.9,8.69,28.49,28.49,0,0,1-8.81,5.84A27.24,27.24,0,0,1,262.41,131.06Z"/><path class="e" d="M11.1,170.72a.61.61,0,0,0,0-.22l-5.8-11.12a1.06,1.06,0,0,1-.14-.5c0-.48.56-.78,1-.78s.53.17.73.56L12,168.88l5.18-10.22a.83.83,0,0,1,.73-.56c.45,0,1,.31,1,.78a1.38,1.38,0,0,1-.11.5L13,170.5a.66.66,0,0,0-.06.22v7.11c0,.48-.45.73-.92.73s-.92-.25-.92-.73Z"/><path class="e" d="M28.6,170.39v3.05a5.51,5.51,0,0,1-5.35,5.32A5.46,5.46,0,0,1,18,173.44v-3.05a5.32,5.32,0,0,1,10.64,0Zm-1.82,0a3.65,3.65,0,0,0-3.53-3.56,3.6,3.6,0,0,0-3.47,3.56v3.05a3.64,3.64,0,0,0,3.47,3.64,3.67,3.67,0,0,0,3.53-3.64Z"/><path class="e" d="M31.45,173.5V166a.86.86,0,0,1,.92-.7.87.87,0,0,1,.9.7v7.48a3.5,3.5,0,1,0,7,0V166c0-.36.42-.67.92-.67s.9.31.9.67v7.5a5.32,5.32,0,0,1-10.64,0Z"/><path class="e" d="M51,166.83a3.85,3.85,0,0,0-3.7,4.09v6.92a.86.86,0,0,1-.92.73.85.85,0,0,1-.9-.73V166c0-.39.39-.67.9-.67s.87.28.87.67v1.37A4.29,4.29,0,0,1,51,165.15h1a.85.85,0,0,1,0,1.68Z"/><path class="e" d="M66.73,175.23c0-3.72-6.92-1.62-6.92-6.27,0-1.79,1.23-3.81,4.42-3.81,1.85,0,3.75.7,3.75,1.37,0,.31-.31,1-.76,1s-1.32-.78-3-.78c-2.07,0-2.8,1.26-2.8,2.18,0,3.19,6.94,1.18,6.94,6.27,0,2.21-1.65,3.61-4.51,3.61-2.63,0-4.4-1.18-4.4-2,0-.36.28-.84.64-.84.62,0,1.18,1.32,3.7,1.32C66,177.22,66.73,176.3,66.73,175.23Z"/><path class="e" d="M83.11,178.34a.7.7,0,0,1-.73.45.74.74,0,0,1-.76-.42l-2.91-9.1-2.88,9a.76.76,0,0,1-.81.56.69.69,0,0,1-.76-.56L69.9,166.5a1.17,1.17,0,0,1-.11-.42c0-.45.59-.81,1.09-.81a.64.64,0,0,1,.64.42l3.58,10,2.88-9.1a.65.65,0,0,1,.73-.48.67.67,0,0,1,.73.48l2.77,9.21,3.67-10.08a.62.62,0,0,1,.62-.42c.48,0,1.09.31,1.09.81a.93.93,0,0,1-.11.42Z"/><path class="e" d="M91.9,160.22a1.21,1.21,0,0,1-1.2,1.18,1.24,1.24,0,0,1-1.26-1.18,1.22,1.22,0,0,1,1.26-1.15A1.18,1.18,0,0,1,91.9,160.22ZM91.62,166v11.84a.88.88,0,0,1-.92.73.85.85,0,0,1-.9-.73V166c0-.39.39-.67.9-.67S91.62,165.6,91.62,166Z"/><path class="e" d="M101.54,175.23c0-3.72-6.92-1.62-6.92-6.27,0-1.79,1.23-3.81,4.42-3.81,1.85,0,3.75.7,3.75,1.37,0,.31-.31,1-.76,1s-1.32-.78-3-.78c-2.07,0-2.8,1.26-2.8,2.18,0,3.19,6.94,1.18,6.94,6.27,0,2.21-1.65,3.61-4.51,3.61-2.63,0-4.4-1.18-4.4-2,0-.36.28-.84.64-.84.62,0,1.18,1.32,3.7,1.32C100.78,177.22,101.54,176.3,101.54,175.23Z"/><path class="e" d="M112.31,175.23c0-3.72-6.92-1.62-6.92-6.27,0-1.79,1.23-3.81,4.42-3.81,1.85,0,3.75.7,3.75,1.37,0,.31-.31,1-.76,1s-1.32-.78-3-.78c-2.07,0-2.8,1.26-2.8,2.18,0,3.19,6.94,1.18,6.94,6.27,0,2.21-1.65,3.61-4.51,3.61-2.63,0-4.4-1.18-4.4-2,0-.36.28-.84.64-.84.62,0,1.18,1.32,3.7,1.32C111.56,177.22,112.31,176.3,112.31,175.23Z"/><path class="e" d="M128,170.25l4.84,7.08a.91.91,0,0,1,.11.39,1.07,1.07,0,0,1-1,.92.65.65,0,0,1-.56-.34l-4.7-6.92-2.58,2.27v4.17a.86.86,0,0,1-.92.73.85.85,0,0,1-.9-.73v-20c0-.39.39-.67.9-.67s.92.28.92.67v13.64l6.83-6.08a.89.89,0,0,1,.42-.17.94.94,0,0,1,.92.87.61.61,0,0,1-.2.5Z"/><path class="e" d="M136.9,177.84a.88.88,0,0,1-.92.73.83.83,0,0,1-.9-.73V166c0-.39.36-.67.9-.67a.77.77,0,0,1,.84.67v1.29a4.17,4.17,0,0,1,3.75-2.13,5.16,5.16,0,0,1,5,5.24v7.45c0,.48-.48.73-.92.73a.82.82,0,0,1-.9-.73v-7.45a3.64,3.64,0,0,0-3.5-3.56,3.39,3.39,0,0,0-3.33,3.56Z"/><path class="e" d="M151.07,160.22a1.21,1.21,0,0,1-1.2,1.18,1.24,1.24,0,0,1-1.26-1.18,1.22,1.22,0,0,1,1.26-1.15A1.18,1.18,0,0,1,151.07,160.22Zm-.28,5.77v11.84a.88.88,0,0,1-.92.73.85.85,0,0,1-.9-.73V166c0-.39.39-.67.9-.67S150.79,165.6,150.79,166Z"/><path class="e" d="M156.13,165.32h4a.69.69,0,0,1,.64.73.71.71,0,0,1-.64.78h-4v11c0,.42-.45.7-1,.7a.78.78,0,0,1-.87-.7V162.35a5.12,5.12,0,0,1,5-5.15h.7a.83.83,0,0,1,0,1.65h-.48a3.39,3.39,0,0,0-3.39,3.36Z"/><path class="e" d="M172.46,170.25c0,2.16-1.2,2.24-2.44,2.24h-6.33v1c0,2.24,1.79,3.64,4.26,3.64,2.21,0,2.74-1.12,3.36-1.12a.92.92,0,0,1,.78.87c0,.67-1.6,1.85-4.2,1.85-3.53,0-6-2.13-6-5.32V170.3a5.29,5.29,0,0,1,5.35-5.15A5.14,5.14,0,0,1,172.46,170.25Zm-3.16.9c1.12,0,1.4-.17,1.4-1a3.52,3.52,0,0,0-3.5-3.53,3.47,3.47,0,0,0-3.5,3.42v1.06Z"/><path class="e" d="M182.62,165.32h4a.69.69,0,0,1,.64.73.71.71,0,0,1-.64.78h-4v11c0,.42-.45.7-1,.7a.78.78,0,0,1-.87-.7V162.35a5.12,5.12,0,0,1,5-5.15h.7a.83.83,0,0,1,0,1.65H186a3.39,3.39,0,0,0-3.39,3.36Z"/><path class="e" d="M199,170.39v3.05a5.32,5.32,0,1,1-10.64,0v-3.05a5.32,5.32,0,0,1,10.64,0Zm-1.82,0a3.65,3.65,0,0,0-3.53-3.56,3.6,3.6,0,0,0-3.47,3.56v3.05a3.5,3.5,0,1,0,7,0Z"/><path class="e" d="M207.49,166.83a3.85,3.85,0,0,0-3.7,4.09v6.92a.86.86,0,0,1-.92.73.85.85,0,0,1-.9-.73V166c0-.39.39-.67.9-.67s.87.28.87.67v1.37a4.29,4.29,0,0,1,3.75-2.21h1a.85.85,0,0,1,0,1.68Z"/><path class="e" d="M218.94,160.22a1.21,1.21,0,0,1-1.2,1.18,1.24,1.24,0,0,1-1.26-1.18,1.22,1.22,0,0,1,1.26-1.15A1.18,1.18,0,0,1,218.94,160.22Zm-.28,5.77v11.84a.88.88,0,0,1-.92.73.85.85,0,0,1-.9-.73V166c0-.39.39-.67.9-.67S218.66,165.6,218.66,166Z"/><path class="e" d="M224,177.84a.88.88,0,0,1-.92.73.83.83,0,0,1-.9-.73V166c0-.39.36-.67.9-.67a.77.77,0,0,1,.84.67v1.29a4.17,4.17,0,0,1,3.75-2.13,5.16,5.16,0,0,1,5,5.24v7.45c0,.48-.48.73-.92.73a.82.82,0,0,1-.9-.73v-7.45a3.64,3.64,0,0,0-3.5-3.56,3.39,3.39,0,0,0-3.33,3.56Z"/><path class="e" d="M237.84,174.45c0,1.82.67,2.46,2.6,2.46h.78a.83.83,0,1,1,0,1.65h-.78c-2.88,0-4.42-1.23-4.42-4.12V159.69c0-.39.48-.67.9-.67s.92.28.92.67v5.63h3.61a.77.77,0,0,1,0,1.51h-3.61Z"/><path class="e" d="M254.22,170.25c0,2.16-1.2,2.24-2.44,2.24h-6.33v1c0,2.24,1.79,3.64,4.26,3.64,2.21,0,2.74-1.12,3.36-1.12a.92.92,0,0,1,.78.87c0,.67-1.6,1.85-4.2,1.85-3.53,0-6-2.13-6-5.32V170.3a5.29,5.29,0,0,1,5.35-5.15A5.14,5.14,0,0,1,254.22,170.25Zm-3.16.9c1.12,0,1.4-.17,1.4-1a3.52,3.52,0,0,0-3.5-3.53,3.47,3.47,0,0,0-3.5,3.42v1.06Z"/><path class="e" d="M262.48,166.83a3.85,3.85,0,0,0-3.7,4.09v6.92a.86.86,0,0,1-.92.73.85.85,0,0,1-.9-.73V166c0-.39.39-.67.9-.67s.87.28.87.67v1.37a4.29,4.29,0,0,1,3.75-2.21h1a.85.85,0,0,1,0,1.68Z"/><path class="e" d="M268.33,160.22a1.21,1.21,0,0,1-1.2,1.18,1.24,1.24,0,0,1-1.26-1.18,1.22,1.22,0,0,1,1.26-1.15A1.18,1.18,0,0,1,268.33,160.22ZM268,166v11.84a.88.88,0,0,1-.92.73.85.85,0,0,1-.9-.73V166c0-.39.39-.67.9-.67S268,165.6,268,166Z"/><path class="e" d="M281.68,170.39v3.05a5.32,5.32,0,1,1-10.64,0v-3.05a5.32,5.32,0,0,1,10.64,0Zm-1.82,0a3.65,3.65,0,0,0-3.53-3.56,3.6,3.6,0,0,0-3.47,3.56v3.05a3.5,3.5,0,1,0,7,0Z"/><path class="e" d="M290.2,166.83a3.85,3.85,0,0,0-3.7,4.09v6.92a.86.86,0,0,1-.92.73.85.85,0,0,1-.9-.73V166c0-.39.39-.67.9-.67s.87.28.87.67v1.37a4.29,4.29,0,0,1,3.75-2.21h1a.85.85,0,0,1,0,1.68Z"/><path class="e" d="M308.4,170.56v7.28c0,.42-.36.73-.9.73a.77.77,0,0,1-.84-.73V176.6a5.6,5.6,0,0,1-4.23,2.16,3.47,3.47,0,0,1-3.81-3.7c0-3.05,2.63-3.84,6.52-3.84h1.43v-.67c0-1.79-.9-3.81-3.3-3.81-1.88,0-2.55.81-3,.81s-.73-.56-.73-1c0-.73,2-1.43,3.78-1.43C307.08,165.15,308.4,167.76,308.4,170.56Zm-1.82,1.93H305.4c-2.58,0-5,.25-5,2.41a2.18,2.18,0,0,0,2.44,2.32c1.79,0,3.7-1.68,3.7-2.94Z"/><path class="e" d="M313.58,166v1.29a4.24,4.24,0,0,1,3.75-2.13,5.15,5.15,0,0,1,5,5.24v3.05a5.33,5.33,0,0,1-5,5.32,4.38,4.38,0,0,1-3.78-2.16v7.76a.86.86,0,0,1-.92.7.85.85,0,0,1-.9-.7V166c0-.39.39-.67.9-.67S313.58,165.6,313.58,166Zm7,4.4a3.67,3.67,0,0,0-3.53-3.56,3.42,3.42,0,0,0-3.39,3.56v3.92a3.5,3.5,0,0,0,6.92-.87Z"/><path class="e" d="M327.13,166v1.29a4.24,4.24,0,0,1,3.75-2.13,5.15,5.15,0,0,1,5,5.24v3.05a5.33,5.33,0,0,1-5,5.32,4.38,4.38,0,0,1-3.78-2.16v7.76a.86.86,0,0,1-.92.7.85.85,0,0,1-.9-.7V166c0-.39.39-.67.9-.67S327.13,165.6,327.13,166Zm7,4.4a3.67,3.67,0,0,0-3.53-3.56,3.42,3.42,0,0,0-3.39,3.56v3.92a3.5,3.5,0,0,0,6.92-.87Z"/><path class="e" d="M345.3,175.23c0-3.72-6.92-1.62-6.92-6.27,0-1.79,1.23-3.81,4.42-3.81,1.85,0,3.75.7,3.75,1.37,0,.31-.31,1-.76,1s-1.32-.78-3-.78c-2.07,0-2.8,1.26-2.8,2.18,0,3.19,6.94,1.18,6.94,6.27,0,2.21-1.65,3.61-4.51,3.61-2.63,0-4.4-1.18-4.4-2,0-.36.28-.84.64-.84.62,0,1.18,1.32,3.7,1.32C344.54,177.22,345.3,176.3,345.3,175.23Z"/></svg>