<svg xmlns="http://www.w3.org/2000/svg" viewBox="0 0 143 87"><defs><style>.a{fill:#1b2023;}.b{fill:#282e30;}</style></defs><title>3d.io_title_small</title><path class="a" d="M28.283,36.531A18.81,18.81,0,0,0,22.7,32.7a18.561,18.561,0,0,0-5.21-1.476c2.183-3.034,4.42-6.067,6.662-9.033,2.575-3.406,5.178-6.909,7.737-10.413a.949.949,0,0,0-.766-1.509H3.72a.949.949,0,0,0-.949.949v3.007a.949.949,0,0,0,.949.949H23.841c-2.287,3.182-4.629,6.4-6.977,9.6C14.231,28.36,11.517,32.1,8.8,35.9a.949.949,0,0,0,1.328,1.321,7.674,7.674,0,0,1,4.622-1.574A13.594,13.594,0,0,1,20.059,36.7a14.408,14.408,0,0,1,4.39,2.86,13.4,13.4,0,0,1,2.964,4.253A12.854,12.854,0,0,1,28.5,49.065a12.652,12.652,0,0,1-1.087,5.17,13.879,13.879,0,0,1-2.971,4.3,14.612,14.612,0,0,1-4.395,2.941,13.131,13.131,0,0,1-5.3,1.09,11.377,11.377,0,0,1-5.4-1.309,14.22,14.22,0,0,1-4.231-3.366.949.949,0,0,0-1.4-.059L1.462,60.089a.949.949,0,0,0-.022,1.319,19.658,19.658,0,0,0,5.967,4.344A17.569,17.569,0,0,0,15,67.39a17.831,17.831,0,0,0,7.144-1.457,18.78,18.78,0,0,0,9.8-9.761,18.224,18.224,0,0,0,.086-14.082A17.75,17.75,0,0,0,28.283,36.531Z"/><path class="a" d="M73.891,1.5H70.967a.949.949,0,0,0-.949.949V38.2q-.22-.287-.457-.566A17.548,17.548,0,0,0,66.2,34.586a15.832,15.832,0,0,0-4.31-2.09,17.093,17.093,0,0,0-5.13-.754,17.626,17.626,0,0,0-6.929,1.37,18.112,18.112,0,0,0-5.64,3.746,17.148,17.148,0,0,0-3.8,5.657,18.788,18.788,0,0,0-.045,13.968A17.048,17.048,0,0,0,44.065,62.1a18.167,18.167,0,0,0,5.595,3.79,17.386,17.386,0,0,0,7.022,1.416,16.36,16.36,0,0,0,9.477-2.757,17.9,17.9,0,0,0,3.87-3.566q-.011.426-.011.863v3.926a.949.949,0,0,0,.949.949h2.924a.949.949,0,0,0,.949-.949V2.45A.949.949,0,0,0,73.891,1.5ZM56.932,62.568a13.218,13.218,0,0,1-5.147-1.012,12.871,12.871,0,0,1-7.938-11.99,13.228,13.228,0,0,1,1.012-5.147,12.58,12.58,0,0,1,6.926-6.926,13.591,13.591,0,0,1,10.293,0,12.58,12.58,0,0,1,6.927,6.926,13.252,13.252,0,0,1,1.012,5.147,12.785,12.785,0,0,1-7.939,11.99A13.227,13.227,0,0,1,56.932,62.568Z"/><path class="a" d="M85.426,59.728A3.332,3.332,0,0,0,83,60.757a3.429,3.429,0,0,0-1.03,2.509,3.329,3.329,0,0,0,1.049,2.486,3.471,3.471,0,0,0,4.812,0,3.331,3.331,0,0,0,1.05-2.487,3.429,3.429,0,0,0-1.03-2.509A3.333,3.333,0,0,0,85.426,59.728Z"/><path class="a" d="M98.465,18.627a3.332,3.332,0,0,0-2.426,1.03,3.429,3.429,0,0,0-1.03,2.509,3.33,3.33,0,0,0,1.049,2.486,3.4,3.4,0,0,0,2.406.97,3.446,3.446,0,0,0,3.372-3.455,3.429,3.429,0,0,0-1.03-2.509A3.242,3.242,0,0,0,98.465,18.627Z"/><rect class="a" x="96.013" y="32.494" width="4.738" height="34.227" rx="0.949" ry="0.949"/><path class="a" d="M140.345,42.59h0a17.973,17.973,0,0,0-9.517-9.516,17.908,17.908,0,0,0-13.952,0,17.973,17.973,0,0,0-9.516,9.516,18.011,18.011,0,0,0,0,14,18.165,18.165,0,0,0,3.79,5.6,17.476,17.476,0,0,0,5.651,3.755,17.928,17.928,0,0,0,6.966,1.368,17.692,17.692,0,0,0,7.059-1.414,18.584,18.584,0,0,0,5.677-3.786,17.845,17.845,0,0,0,3.838-5.6,17.182,17.182,0,0,0,1.416-6.938A17.483,17.483,0,0,0,140.345,42.59ZM123.768,62.568a13.064,13.064,0,0,1-11.991-18.1,13.522,13.522,0,0,1,2.77-4.177,12.691,12.691,0,0,1,4.121-2.8,13.38,13.38,0,0,1,10.2,0,13.087,13.087,0,0,1,6.976,6.975,13.38,13.38,0,0,1,0,10.2,12.689,12.689,0,0,1-2.8,4.121,13.519,13.519,0,0,1-4.178,2.771A12.925,12.925,0,0,1,123.768,62.568Z"/><path class="b" d="M3.713,81.628c0,.5.18.678.717.678h.5a.7.7,0,1,1,0,1.4h-.5c-1.536,0-2.368-.627-2.368-2.074V75.419c0-.307.436-.512.819-.512.423,0,.832.2.832.512v2.2H5.224c.269,0,.423.307.423.6s-.154.6-.423.6H3.713Z"/><path class="b" d="M12.546,80.143v1.05a2.783,2.783,0,0,1-5.557,0v-1.05a2.785,2.785,0,0,1,5.557,0Zm-1.651,0A1.186,1.186,0,0,0,9.768,78.99a1.177,1.177,0,0,0-1.127,1.152v1.05A1.182,1.182,0,0,0,9.768,82.37a1.191,1.191,0,0,0,1.127-1.178Z"/><path class="b" d="M19.688,80.143v1.05a2.782,2.782,0,0,1-5.556,0v-1.05a2.784,2.784,0,0,1,5.556,0Zm-1.651,0a1.127,1.127,0,1,0-2.253,0v1.05a1.128,1.128,0,1,0,2.253,0Z"/><path class="b" d="M23.271,74.587v8.59c0,.256-.384.525-.832.525-.486,0-.819-.269-.819-.525v-8.59c0-.307.333-.512.819-.512C22.887,74.074,23.271,74.279,23.271,74.587Z"/><path class="b" d="M28.992,80.027l1.882,2.688a.448.448,0,0,1,.09.269,1.038,1.038,0,0,1-.935.819.5.5,0,0,1-.41-.218l-1.728-2.548-.794.73v1.408c0,.256-.384.525-.845.525s-.807-.269-.807-.525v-8.59c0-.307.333-.512.807-.512s.845.2.845.512v5.364L29.5,77.685a.514.514,0,0,1,.333-.128.924.924,0,0,1,.807.794.429.429,0,0,1-.141.307Z"/><path class="b" d="M34.214,75.457a.908.908,0,1,1-.9-.806A.858.858,0,0,1,34.214,75.457Zm-.063,2.676v5.044c0,.256-.371.525-.832.525s-.819-.269-.819-.525V78.133c0-.307.346-.512.819-.512S34.15,77.825,34.15,78.133Z"/><path class="b" d="M37.837,81.628c0,.5.179.678.717.678h.5a.7.7,0,1,1,0,1.4h-.5c-1.536,0-2.368-.627-2.368-2.074V75.419c0-.307.435-.512.819-.512.422,0,.832.2.832.512v2.2h1.511c.269,0,.422.307.422.6s-.153.6-.422.6H37.837Z"/><path class="b" d="M46.4,77.621h1.563c.269,0,.422.307.422.6s-.153.6-.422.6H46.4V83.19c0,.307-.4.512-.845.512s-.807-.2-.807-.512V76.584A2.372,2.372,0,0,1,47,74.074h.755a.7.7,0,0,1,0,1.4h-.409a.891.891,0,0,0-.948.935Z"/><path class="b" d="M55.054,80.143v1.05a2.783,2.783,0,0,1-5.557,0v-1.05a2.785,2.785,0,0,1,5.557,0Zm-1.651,0a1.127,1.127,0,1,0-2.254,0v1.05a1.128,1.128,0,1,0,2.254,0Z"/><path class="b" d="M59.993,78.99a1.7,1.7,0,0,0-1.472,1.895v2.292c0,.256-.384.525-.845.525s-.807-.269-.807-.525V78.133c0-.307.333-.512.807-.512.409,0,.742.2.742.512v.525a1.882,1.882,0,0,1,1.574-1.114h.4a.736.736,0,0,1,0,1.447Z"/><path class="b" d="M67.507,75.457a.909.909,0,1,1-.9-.806A.859.859,0,0,1,67.507,75.457Zm-.064,2.676v5.044c0,.256-.371.525-.832.525s-.819-.269-.819-.525V78.133c0-.307.346-.512.819-.512S67.442,77.825,67.442,78.133Z"/><path class="b" d="M71.142,83.177c0,.256-.384.525-.832.525-.486,0-.819-.269-.819-.525V78.133c0-.307.333-.512.819-.512.4,0,.729.2.729.512v.384a1.88,1.88,0,0,1,1.716-.973,2.461,2.461,0,0,1,2.2,2.6v3.034c0,.346-.423.525-.832.525-.384,0-.819-.179-.819-.525V80.143a1.174,1.174,0,0,0-1.114-1.152,1.089,1.089,0,0,0-1.05,1.152Z"/><path class="b" d="M78.592,81.628c0,.5.179.678.717.678h.5a.7.7,0,1,1,0,1.4h-.5c-1.536,0-2.368-.627-2.368-2.074V75.419c0-.307.435-.512.819-.512.422,0,.832.2.832.512v2.2H80.1c.269,0,.422.307.422.6s-.153.6-.422.6H78.592Z"/><path class="b" d="M87.309,79.951c0,1.088-.614,1.139-1.19,1.139h-2.6v.192c0,.743.6,1.229,1.5,1.229.845,0,1.19-.486,1.574-.486s.627.474.627.73c0,.435-.883,1.063-2.253,1.063-1.817,0-3.1-1.05-3.1-2.625V80.1a2.7,2.7,0,0,1,2.8-2.56A2.5,2.5,0,0,1,87.309,79.951Zm-1.92.166c.269,0,.371-.064.371-.345a1.127,1.127,0,0,0-2.24-.013v.358Z"/><path class="b" d="M92.186,78.99a1.7,1.7,0,0,0-1.473,1.895v2.292c0,.256-.384.525-.845.525s-.807-.269-.807-.525V78.133c0-.307.333-.512.807-.512.41,0,.742.2.742.512v.525a1.885,1.885,0,0,1,1.575-1.114h.4a.736.736,0,0,1,0,1.447Z"/><path class="b" d="M96.371,75.457a.909.909,0,1,1-.9-.806A.859.859,0,0,1,96.371,75.457Zm-.064,2.676v5.044c0,.256-.371.525-.832.525s-.819-.269-.819-.525V78.133c0-.307.346-.512.819-.512S96.307,77.825,96.307,78.133Z"/><path class="b" d="M103.681,80.143v1.05a2.783,2.783,0,0,1-5.557,0v-1.05a2.785,2.785,0,0,1,5.557,0Zm-1.651,0a1.127,1.127,0,1,0-2.254,0v1.05a1.128,1.128,0,1,0,2.254,0Z"/><path class="b" d="M108.62,78.99a1.7,1.7,0,0,0-1.473,1.895v2.292c0,.256-.384.525-.845.525s-.807-.269-.807-.525V78.133c0-.307.333-.512.807-.512.41,0,.742.2.742.512v.525a1.885,1.885,0,0,1,1.575-1.114h.4a.736.736,0,0,1,0,1.447Z"/><path class="b" d="M119.219,80.04v3.136c0,.294-.346.525-.807.525-.422,0-.742-.23-.742-.525v-.371a2.546,2.546,0,0,1-1.946,1.011,1.562,1.562,0,0,1-1.664-1.7c0-1.472,1.217-1.882,2.983-1.882h.524v-.166a1.075,1.075,0,0,0-1.127-1.178c-.985,0-1.151.4-1.459.4-.371,0-.563-.448-.563-.819,0-.525,1.14-.922,2.049-.922C118.464,77.544,119.219,78.747,119.219,80.04Zm-1.651,1.05h-.192c-.857,0-1.664.09-1.664.806a.629.629,0,0,0,.679.691,1.339,1.339,0,0,0,1.178-1.229Z"/><path class="b" d="M122.777,78.133v.384a2.01,2.01,0,0,1,1.728-.973,2.459,2.459,0,0,1,2.292,2.6v1.05a2.542,2.542,0,0,1-2.24,2.625,1.9,1.9,0,0,1-1.678-1.011v3.2c0,.269-.384.525-.845.525s-.807-.256-.807-.525V78.133c0-.307.346-.512.781-.512S122.777,77.825,122.777,78.133Zm2.368,2.01a1.2,1.2,0,0,0-1.165-1.152,1.12,1.12,0,0,0-1.1,1.152v1.28a1.245,1.245,0,0,0,1.127.948,1.222,1.222,0,0,0,1.14-1.178Z"/><path class="b" d="M130.188,78.133v.384a2.01,2.01,0,0,1,1.728-.973,2.459,2.459,0,0,1,2.292,2.6v1.05a2.542,2.542,0,0,1-2.24,2.625,1.9,1.9,0,0,1-1.678-1.011v3.2c0,.269-.384.525-.845.525s-.807-.256-.807-.525V78.133c0-.307.346-.512.781-.512S130.188,77.825,130.188,78.133Zm2.368,2.01a1.2,1.2,0,0,0-1.165-1.152,1.12,1.12,0,0,0-1.1,1.152v1.28a1.245,1.245,0,0,0,1.127.948,1.222,1.222,0,0,0,1.14-1.178Z"/><path class="b" d="M138.905,82.012c0-1.126-3.034-.422-3.034-2.56,0-.909.576-1.907,2.291-1.907,1.037,0,2.036.358,2.036.832,0,.23-.218.794-.6.794-.308,0-.7-.371-1.408-.371-.641,0-.9.32-.9.576,0,.935,3.072.294,3.072,2.573,0,1.139-.845,1.869-2.355,1.869-1.306,0-2.317-.538-2.317-1.1,0-.269.23-.73.551-.73.371,0,.653.576,1.729.576C138.726,82.562,138.905,82.268,138.905,82.012Z"/></svg>