<svg xmlns="http://www.w3.org/2000/svg" viewBox="0 0 143 87"><defs><style>.a{fill:#1b2023;}.b{fill:#282e30;}</style></defs><title>3d-io-logo-small</title><path class="a" d="M28.283,36.531A18.81,18.81,0,0,0,22.7,32.7a18.561,18.561,0,0,0-5.21-1.476c2.183-3.034,4.42-6.067,6.662-9.033,2.575-3.406,5.178-6.909,7.737-10.413a.949.949,0,0,0-.766-1.509H3.72a.949.949,0,0,0-.949.949v3.007a.949.949,0,0,0,.949.949H23.841c-2.287,3.182-4.629,6.4-6.977,9.6C14.231,28.36,11.517,32.1,8.8,35.9a.949.949,0,0,0,1.328,1.321,7.674,7.674,0,0,1,4.622-1.574A13.594,13.594,0,0,1,20.059,36.7a14.408,14.408,0,0,1,4.39,2.86,13.4,13.4,0,0,1,2.964,4.253A12.854,12.854,0,0,1,28.5,49.065a12.652,12.652,0,0,1-1.087,5.17,13.879,13.879,0,0,1-2.971,4.3,14.612,14.612,0,0,1-4.395,2.941,13.131,13.131,0,0,1-5.3,1.09,11.377,11.377,0,0,1-5.4-1.309,14.22,14.22,0,0,1-4.231-3.366.949.949,0,0,0-1.4-.059L1.462,60.089a.949.949,0,0,0-.022,1.319,19.658,19.658,0,0,0,5.967,4.344A17.569,17.569,0,0,0,15,67.39a17.831,17.831,0,0,0,7.144-1.457,18.78,18.78,0,0,0,9.8-9.761,18.224,18.224,0,0,0,.086-14.082A17.75,17.75,0,0,0,28.283,36.531Z"/><path class="a" d="M73.891,1.5H70.967a.949.949,0,0,0-.949.949V38.2q-.22-.287-.457-.566A17.548,17.548,0,0,0,66.2,34.586a15.832,15.832,0,0,0-4.31-2.09,17.093,17.093,0,0,0-5.13-.754,17.626,17.626,0,0,0-6.929,1.37,18.112,18.112,0,0,0-5.64,3.746,17.148,17.148,0,0,0-3.8,5.657,18.788,18.788,0,0,0-.045,13.968A17.048,17.048,0,0,0,44.065,62.1a18.167,18.167,0,0,0,5.595,3.79,17.386,17.386,0,0,0,7.022,1.416,16.36,16.36,0,0,0,9.477-2.757,17.9,17.9,0,0,0,3.87-3.566q-.011.426-.011.863v3.926a.949.949,0,0,0,.949.949h2.924a.949.949,0,0,0,.949-.949V2.45A.949.949,0,0,0,73.891,1.5ZM56.932,62.568a13.218,13.218,0,0,1-5.147-1.012,12.871,12.871,0,0,1-7.938-11.99,13.228,13.228,0,0,1,1.012-5.147,12.58,12.58,0,0,1,6.926-6.926,13.591,13.591,0,0,1,10.293,0,12.58,12.58,0,0,1,6.927,6.926,13.252,13.252,0,0,1,1.012,5.147,12.785,12.785,0,0,1-7.939,11.99A13.227,13.227,0,0,1,56.932,62.568Z"/><path class="a" d="M85.426,59.728A3.332,3.332,0,0,0,83,60.757a3.429,3.429,0,0,0-1.03,2.509,3.329,3.329,0,0,0,1.049,2.486,3.471,3.471,0,0,0,4.812,0,3.331,3.331,0,0,0,1.05-2.487,3.429,3.429,0,0,0-1.03-2.509A3.333,3.333,0,0,0,85.426,59.728Z"/><path class="a" d="M98.465,18.627a3.332,3.332,0,0,0-2.426,1.03,3.429,3.429,0,0,0-1.03,2.509,3.33,3.33,0,0,0,1.049,2.486,3.4,3.4,0,0,0,2.406.97,3.446,3.446,0,0,0,3.372-3.455,3.429,3.429,0,0,0-1.03-2.509A3.242,3.242,0,0,0,98.465,18.627Z"/><rect class="a" x="96.013" y="32.494" width="4.738" height="34.227" rx="0.949" ry="0.949"/><path class="a" d="M140.345,42.59h0a17.973,17.973,0,0,0-9.517-9.516,17.908,17.908,0,0,0-13.952,0,17.973,17.973,0,0,0-9.516,9.516,18.011,18.011,0,0,0,0,14,18.165,18.165,0,0,0,3.79,5.6,17.476,17.476,0,0,0,5.651,3.755,17.928,17.928,0,0,0,6.966,1.368,17.692,17.692,0,0,0,7.059-1.414,18.584,18.584,0,0,0,5.677-3.786,17.845,17.845,0,0,0,3.838-5.6,17.182,17.182,0,0,0,1.416-6.938A17.483,17.483,0,0,0,140.345,42.59ZM123.768,62.568a13.064,13.064,0,0,1-11.991-18.1,13.522,13.522,0,0,1,2.77-4.177,12.691,12.691,0,0,1,4.121-2.8,13.38,13.38,0,0,1,10.2,0,13.087,13.087,0,0,1,6.976,6.975,13.38,13.38,0,0,1,0,10.2,12.689,12.689,0,0,1-2.8,4.121,13.519,13.519,0,0,1-4.178,2.771A12.925,12.925,0,0,1,123.768,62.568Z"/><path class="b" d="M3.969,81.487c0,.371.128.5.525.5h.551a.832.832,0,1,1,0,1.664H4.494c-1.626,0-2.51-.653-2.51-2.164V75.508c0-.359.525-.6.986-.6.5,0,1,.243,1,.6v2.048H5.416c.319,0,.486.358.486.7s-.167.7-.486.7H3.969Z"/><path class="b" d="M12.84,80.168v.9a2.919,2.919,0,0,1-5.824,0v-.9A2.841,2.841,0,0,1,9.922,77.48,2.851,2.851,0,0,1,12.84,80.168Zm-1.983,0a.98.98,0,0,0-.935-.96.968.968,0,0,0-.922.96v.9a.974.974,0,0,0,.922.986.985.985,0,0,0,.935-.986Z"/><path class="b" d="M20,80.168v.9a2.92,2.92,0,0,1-5.825,0v-.9a2.922,2.922,0,0,1,5.825,0Zm-1.984,0a.98.98,0,0,0-.935-.96.969.969,0,0,0-.922.96v.9a.975.975,0,0,0,.922.986.985.985,0,0,0,.935-.986Z"/><path class="b" d="M23.655,74.676v8.36c0,.307-.448.615-1,.615-.576,0-.986-.307-.986-.615v-8.36c0-.358.41-.6.986-.6C23.207,74.074,23.655,74.318,23.655,74.676Z"/><path class="b" d="M29.518,80.027l1.754,2.458a.583.583,0,0,1,.1.307c0,.461-.665.986-1.139.986a.55.55,0,0,1-.474-.243l-1.55-2.292-.652.6v1.191c0,.307-.448.615-1.012.615s-.973-.307-.973-.615v-8.36c0-.358.409-.6.973-.6s1.012.243,1.012.6v5.019l2.125-2.061a.542.542,0,0,1,.384-.154,1.113,1.113,0,0,1,.96.947.476.476,0,0,1-.153.346Z"/><path class="b" d="M34.74,75.457a1.053,1.053,0,1,1-1.037-.909A1,1,0,0,1,34.74,75.457Zm-.038,2.7v4.878c0,.307-.448.615-1,.615-.576,0-.985-.307-.985-.615V78.158c0-.358.409-.6.985-.6C34.254,77.557,34.7,77.8,34.7,78.158Z"/><path class="b" d="M38.438,81.487c0,.371.128.5.525.5h.551a.832.832,0,1,1,0,1.664h-.551c-1.626,0-2.51-.653-2.51-2.164V75.508c0-.359.525-.6.986-.6.5,0,1,.243,1,.6v2.048h1.447c.319,0,.486.358.486.7s-.167.7-.486.7H38.438Z"/><path class="b" d="M46.977,77.557h1.447c.319,0,.486.358.486.7s-.167.7-.486.7H46.977v4.084c0,.359-.474.6-1.011.6s-.974-.243-.974-.6v-6.4a2.4,2.4,0,0,1,2.254-2.573h.921a.837.837,0,0,1,0,1.664h-.486a.636.636,0,0,0-.7.691Z"/><path class="b" d="M55.63,80.168v.9a2.919,2.919,0,0,1-5.824,0v-.9a2.921,2.921,0,0,1,5.824,0Zm-1.983,0a.98.98,0,0,0-.935-.96.968.968,0,0,0-.922.96v.9a.974.974,0,0,0,.922.986.985.985,0,0,0,.935-.986Z"/><path class="b" d="M60.571,79.208c-.7,0-1.4.743-1.4,1.907v1.92c0,.307-.448.615-1.012.615s-.973-.307-.973-.615V78.158c0-.358.409-.6.973-.6.486,0,.884.243.884.6v.474a1.894,1.894,0,0,1,1.523-1.152h.371a.882.882,0,0,1,0,1.728Z"/><path class="b" d="M68.1,75.457a1.053,1.053,0,1,1-1.036-.909A1,1,0,0,1,68.1,75.457Zm-.038,2.7v4.878c0,.307-.448.615-1,.615-.576,0-.986-.307-.986-.615V78.158c0-.358.41-.6.986-.6C67.61,77.557,68.059,77.8,68.059,78.158Z"/><path class="b" d="M71.821,83.036c0,.307-.461.615-1,.615-.576,0-.986-.307-.986-.615V78.158c0-.358.41-.6.986-.6.474,0,.87.243.87.6v.294a1.878,1.878,0,0,1,1.716-.973,2.508,2.508,0,0,1,2.176,2.688v2.868c0,.41-.5.615-1,.615-.461,0-.986-.2-.986-.615V80.168a.968.968,0,0,0-.922-.96.9.9,0,0,0-.857.96Z"/><path class="b" d="M79.271,81.487c0,.371.128.5.525.5h.551a.832.832,0,1,1,0,1.664H79.8c-1.626,0-2.51-.653-2.51-2.164V75.508c0-.359.525-.6.986-.6.5,0,1,.243,1,.6v2.048h1.447c.319,0,.486.358.486.7s-.167.7-.486.7H79.271Z"/><path class="b" d="M88.014,79.912c0,1.139-.652,1.191-1.241,1.191H84.3v.077c0,.627.524,1.05,1.306,1.05s1.178-.474,1.6-.474c.461,0,.73.563.73.871,0,.487-.935,1.152-2.382,1.152-1.895,0-3.238-1.088-3.238-2.714V80.13a2.821,2.821,0,0,1,2.944-2.65A2.569,2.569,0,0,1,88.014,79.912Zm-2.125.077c.18,0,.27-.064.27-.307,0-.512-.461-.768-.935-.768a.826.826,0,0,0-.922.768v.307Z"/><path class="b" d="M92.916,79.208c-.7,0-1.4.743-1.4,1.907v1.92c0,.307-.448.615-1.012.615s-.973-.307-.973-.615V78.158c0-.358.41-.6.973-.6.487,0,.884.243.884.6v.474a1.894,1.894,0,0,1,1.523-1.152h.371a.882.882,0,0,1,0,1.728Z"/><path class="b" d="M97.241,75.457a1.053,1.053,0,1,1-1.036-.909A1,1,0,0,1,97.241,75.457Zm-.038,2.7v4.878c0,.307-.448.615-1,.615-.576,0-.986-.307-.986-.615V78.158c0-.358.41-.6.986-.6C96.755,77.557,97.2,77.8,97.2,78.158Z"/><path class="b" d="M104.576,80.168v.9a2.919,2.919,0,0,1-5.824,0v-.9a2.921,2.921,0,0,1,5.824,0Zm-1.983,0a.98.98,0,0,0-.935-.96.968.968,0,0,0-.922.96v.9a.974.974,0,0,0,.922.986.985.985,0,0,0,.935-.986Z"/><path class="b" d="M109.518,79.208c-.7,0-1.4.743-1.4,1.907v1.92c0,.307-.448.615-1.012.615s-.973-.307-.973-.615V78.158c0-.358.409-.6.973-.6.486,0,.884.243.884.6v.474a1.894,1.894,0,0,1,1.523-1.152h.371a.882.882,0,0,1,0,1.728Z"/><path class="b" d="M120.115,79.989v3.047c0,.346-.409.615-.973.615-.5,0-.884-.269-.884-.615v-.282a2.5,2.5,0,0,1-1.945,1.024,1.555,1.555,0,0,1-1.639-1.7c0-1.51,1.229-1.933,3-1.933h.461v-.128a.885.885,0,0,0-.96-.948c-1.05,0-1.152.423-1.5.423-.435,0-.665-.525-.665-.986,0-.6,1.241-1.024,2.188-1.024C119.3,77.48,120.115,78.7,120.115,79.989ZM118.131,81.1h-.051c-.729,0-1.408.077-1.408.691a.47.47,0,0,0,.5.538,1.191,1.191,0,0,0,.96-1.178Z"/><path class="b" d="M123.725,78.158v.294a2.03,2.03,0,0,1,1.729-.973,2.5,2.5,0,0,1,2.291,2.688v.9a2.588,2.588,0,0,1-2.228,2.714,1.908,1.908,0,0,1-1.664-1.024v3.06c0,.307-.448.615-1.011.615s-.974-.307-.974-.615V78.158c0-.358.423-.6.947-.6S123.725,77.8,123.725,78.158Zm2.036,2.01a1,1,0,0,0-.974-.96.936.936,0,0,0-.935.96v1.063a1.076,1.076,0,0,0,.96.819,1.015,1.015,0,0,0,.948-.986Z"/><path class="b" d="M131.188,78.158v.294a2.029,2.029,0,0,1,1.728-.973,2.5,2.5,0,0,1,2.292,2.688v.9a2.588,2.588,0,0,1-2.228,2.714,1.906,1.906,0,0,1-1.664-1.024v3.06c0,.307-.448.615-1.012.615s-.973-.307-.973-.615V78.158c0-.358.422-.6.947-.6S131.188,77.8,131.188,78.158Zm2.035,2.01a1,1,0,0,0-.973-.96.936.936,0,0,0-.935.96v1.063a1.075,1.075,0,0,0,.96.819,1.015,1.015,0,0,0,.947-.986Z"/><path class="b" d="M139.647,81.884c0-.884-3-.282-3-2.432,0-.948.589-1.972,2.406-1.972,1.114,0,2.177.384,2.177.922,0,.256-.256.935-.717.935-.346,0-.743-.384-1.435-.384-.512,0-.729.218-.729.41,0,.717,3.021.192,3.021,2.445,0,1.2-.871,1.971-2.471,1.971-1.345,0-2.433-.55-2.433-1.178,0-.307.256-.871.653-.871s.7.576,1.728.576C139.532,82.306,139.647,82.063,139.647,81.884Z"/></svg>