<svg xmlns="http://www.w3.org/2000/svg" viewBox="0 0 299 187"><defs><style>.a{fill:#1b2023;}.b{fill:#282e30;}</style></defs><title>3d-io-logo-large</title><path class="a" d="M59.183,75.184a39.642,39.642,0,0,0-11.77-8.067,39.117,39.117,0,0,0-10.98-3.111c4.6-6.4,9.315-12.785,14.041-19.036,5.426-7.177,10.912-14.561,16.3-21.946a2,2,0,0,0-1.615-3.179H7.418a2,2,0,0,0-2,2v6.338a2,2,0,0,0,2,2h42.4c-4.82,6.706-9.755,13.5-14.7,20.23-5.549,7.549-11.27,15.433-17,23.435a2,2,0,0,0,2.8,2.784,16.172,16.172,0,0,1,9.742-3.317,28.648,28.648,0,0,1,11.194,2.219A30.365,30.365,0,0,1,51.1,81.563a28.248,28.248,0,0,1,6.247,8.963A27.088,27.088,0,0,1,59.642,101.6a26.664,26.664,0,0,1-2.292,10.895,29.248,29.248,0,0,1-6.262,9.067,30.793,30.793,0,0,1-9.262,6.2,27.672,27.672,0,0,1-11.169,2.3,23.976,23.976,0,0,1-11.386-2.76,29.968,29.968,0,0,1-8.917-7.095,2,2,0,0,0-2.941-.123l-4.753,4.753a2,2,0,0,0-.047,2.78,41.428,41.428,0,0,0,12.576,9.156,37.027,37.027,0,0,0,16,3.45,37.578,37.578,0,0,0,15.057-3.07,39.578,39.578,0,0,0,20.664-20.571A38.406,38.406,0,0,0,67.087,86.9,37.408,37.408,0,0,0,59.183,75.184Z"/><path class="a" d="M155.3,1.36h-6.162a2,2,0,0,0-2,2V78.7q-.464-.6-.962-1.194a36.982,36.982,0,0,0-7.073-6.423,33.365,33.365,0,0,0-9.083-4.4,36.023,36.023,0,0,0-10.811-1.588,37.147,37.147,0,0,0-14.6,2.888,38.17,38.17,0,0,0-11.886,7.9A36.138,36.138,0,0,0,84.707,87.8a39.595,39.595,0,0,0-.094,29.438,35.927,35.927,0,0,0,7.831,11.834,38.286,38.286,0,0,0,11.791,7.988,36.64,36.64,0,0,0,14.8,2.985A34.479,34.479,0,0,0,139,134.231a37.717,37.717,0,0,0,8.157-7.515q-.024.9-.024,1.819v8.274a2,2,0,0,0,2,2H155.3a2,2,0,0,0,2-2V3.36A2,2,0,0,0,155.3,1.36Zm-35.739,128.7a27.857,27.857,0,0,1-10.847-2.134,27.125,27.125,0,0,1-16.729-25.267,27.878,27.878,0,0,1,2.133-10.847,26.511,26.511,0,0,1,14.6-14.6,28.643,28.643,0,0,1,21.691,0,26.511,26.511,0,0,1,14.6,14.6,27.927,27.927,0,0,1,2.133,10.847,26.945,26.945,0,0,1-16.731,25.268A27.876,27.876,0,0,1,119.561,130.055Z"/><path class="a" d="M179.61,124.07a7.021,7.021,0,0,0-5.111,2.17,7.226,7.226,0,0,0-2.17,5.288,7.016,7.016,0,0,0,2.21,5.239,7.315,7.315,0,0,0,10.14,0,7.02,7.02,0,0,0,2.212-5.24,7.227,7.227,0,0,0-2.17-5.288A7.025,7.025,0,0,0,179.61,124.07Z"/><path class="a" d="M207.089,37.451a7.023,7.023,0,0,0-5.112,2.17,7.227,7.227,0,0,0-2.17,5.287,7.017,7.017,0,0,0,2.21,5.239,7.174,7.174,0,0,0,5.071,2.043,7.262,7.262,0,0,0,7.105-7.282,7.227,7.227,0,0,0-2.17-5.287A6.832,6.832,0,0,0,207.089,37.451Z"/><rect class="a" x="201.92" y="66.676" width="9.986" height="72.133" rx="2" ry="2"/><path class="a" d="M295.348,87.953h0A37.877,37.877,0,0,0,275.292,67.9a37.741,37.741,0,0,0-29.4,0,37.876,37.876,0,0,0-20.055,20.055,37.957,37.957,0,0,0,0,29.5,38.282,38.282,0,0,0,7.988,11.792,36.83,36.83,0,0,0,11.909,7.913,37.783,37.783,0,0,0,14.681,2.884,37.285,37.285,0,0,0,14.877-2.981,39.166,39.166,0,0,0,11.963-7.979,37.607,37.607,0,0,0,8.089-11.8,36.21,36.21,0,0,0,2.985-14.623A36.845,36.845,0,0,0,295.348,87.953Zm-34.934,42.1a27.533,27.533,0,0,1-25.271-38.149,28.5,28.5,0,0,1,5.838-8.8,26.746,26.746,0,0,1,8.686-5.9,28.2,28.2,0,0,1,21.494,0,27.58,27.58,0,0,1,14.7,14.7,28.2,28.2,0,0,1,0,21.5,26.742,26.742,0,0,1-5.9,8.685,28.49,28.49,0,0,1-8.805,5.84A27.239,27.239,0,0,1,260.415,130.055Z"/><path class="b" d="M6.909,173.268c0,2.223.821,3.009,3.181,3.009h.957a1.009,1.009,0,1,1,0,2.018H10.09c-3.522,0-5.4-1.5-5.4-5.027V155.247c0-.479.581-.821,1.095-.821.547,0,1.128.342,1.128.821v6.873H11.32a.935.935,0,0,1,0,1.847H6.909Z"/><path class="b" d="M26.949,168.31v3.727a6.732,6.732,0,0,1-6.531,6.5,6.671,6.671,0,0,1-6.463-6.5V168.31a6.5,6.5,0,0,1,12.994,0Zm-2.223,0a4.456,4.456,0,0,0-4.309-4.343,4.4,4.4,0,0,0-4.24,4.343v3.727a4.442,4.442,0,0,0,4.24,4.445,4.477,4.477,0,0,0,4.309-4.445Z"/><path class="b" d="M42.955,168.31v3.727a6.732,6.732,0,0,1-6.531,6.5,6.671,6.671,0,0,1-6.463-6.5V168.31a6.5,6.5,0,0,1,12.994,0Zm-2.223,0a4.457,4.457,0,0,0-4.309-4.343,4.395,4.395,0,0,0-4.24,4.343v3.727a4.442,4.442,0,0,0,4.24,4.445,4.478,4.478,0,0,0,4.309-4.445Z"/><path class="b" d="M49.111,153.024v24.381a1.046,1.046,0,0,1-1.128.889,1.035,1.035,0,0,1-1.095-.889V153.024c0-.479.479-.821,1.095-.821C48.633,152.2,49.111,152.546,49.111,153.024Z"/><path class="b" d="M60.637,168.138l5.916,8.651a1.115,1.115,0,0,1,.137.479,1.313,1.313,0,0,1-1.2,1.128.788.788,0,0,1-.684-.41l-5.745-8.446-3.146,2.77v5.095a1.047,1.047,0,0,1-1.129.889,1.034,1.034,0,0,1-1.094-.889V153.024c0-.479.479-.821,1.094-.821.65,0,1.129.342,1.129.821v16.653l8.344-7.42a1.077,1.077,0,0,1,.512-.205,1.151,1.151,0,0,1,1.129,1.06.751.751,0,0,1-.239.615Z"/><path class="b" d="M71.854,155.9a1.474,1.474,0,0,1-1.47,1.436,1.514,1.514,0,0,1-1.538-1.436,1.486,1.486,0,0,1,1.538-1.4A1.445,1.445,0,0,1,71.854,155.9Zm-.342,7.044v14.464a1.07,1.07,0,0,1-1.128.889,1.034,1.034,0,0,1-1.095-.889V162.941c0-.479.479-.821,1.095-.821S71.512,162.462,71.512,162.941Z"/><path class="b" d="M77.977,173.268c0,2.223.82,3.009,3.18,3.009h.957a1.009,1.009,0,1,1,0,2.018h-.957c-3.521,0-5.4-1.5-5.4-5.027V155.247c0-.479.58-.821,1.094-.821.547,0,1.129.342,1.129.821v6.873h4.41a.935.935,0,0,1,0,1.847h-4.41Z"/><path class="b" d="M95.041,162.12h4.891a.841.841,0,0,1,.786.889.865.865,0,0,1-.786.958H95.041v13.473c0,.513-.547.855-1.162.855a.949.949,0,0,1-1.061-.855V158.5a6.258,6.258,0,0,1,6.088-6.292h.854a1.01,1.01,0,0,1,0,2.018h-.58a4.147,4.147,0,0,0-4.139,4.1Z"/><path class="b" d="M115.012,168.31v3.727a6.5,6.5,0,0,1-12.994,0V168.31a6.5,6.5,0,0,1,12.994,0Zm-2.223,0a4.456,4.456,0,0,0-4.309-4.343,4.4,4.4,0,0,0-4.24,4.343v3.727a4.278,4.278,0,1,0,8.549,0Z"/><path class="b" d="M125.41,163.967a4.7,4.7,0,0,0-4.514,4.992v8.446a1.047,1.047,0,0,1-1.129.889,1.034,1.034,0,0,1-1.094-.889V162.941c0-.479.479-.821,1.094-.821.581,0,1.061.342,1.061.821v1.676a5.232,5.232,0,0,1,4.582-2.7h1.2a1.036,1.036,0,0,1,0,2.052Z"/><path class="b" d="M139.4,155.9a1.475,1.475,0,0,1-1.47,1.436,1.514,1.514,0,0,1-1.539-1.436,1.487,1.487,0,0,1,1.539-1.4A1.446,1.446,0,0,1,139.4,155.9Zm-.342,7.044v14.464a1.071,1.071,0,0,1-1.128.889,1.034,1.034,0,0,1-1.095-.889V162.941c0-.479.479-.821,1.095-.821S139.056,162.462,139.056,162.941Z"/><path class="b" d="M145.588,177.405a1.071,1.071,0,0,1-1.129.889,1.01,1.01,0,0,1-1.094-.889V162.941c0-.479.444-.821,1.094-.821a.936.936,0,0,1,1.026.821v1.573a5.1,5.1,0,0,1,4.582-2.6,6.3,6.3,0,0,1,6.087,6.395v9.1c0,.581-.582.889-1.129.889a1,1,0,0,1-1.094-.889v-9.1a4.45,4.45,0,0,0-4.274-4.343,4.144,4.144,0,0,0-4.069,4.343Z"/><path class="b" d="M162.482,173.268c0,2.223.82,3.009,3.18,3.009h.958a1.009,1.009,0,1,1,0,2.018h-.958c-3.521,0-5.4-1.5-5.4-5.027V155.247c0-.479.581-.821,1.094-.821.547,0,1.129.342,1.129.821v6.873h4.411a.935.935,0,0,1,0,1.847h-4.411Z"/><path class="b" d="M182.488,168.138c0,2.633-1.471,2.736-2.976,2.736h-7.728v1.265c0,2.736,2.188,4.445,5.2,4.445,2.7,0,3.352-1.368,4.1-1.368a1.126,1.126,0,0,1,.957,1.06c0,.821-1.949,2.257-5.129,2.257-4.309,0-7.352-2.6-7.352-6.5v-3.83a6.462,6.462,0,0,1,6.531-6.292A6.282,6.282,0,0,1,182.488,168.138Zm-3.864,1.094c1.368,0,1.71-.205,1.71-1.163a4.3,4.3,0,0,0-4.275-4.309,4.232,4.232,0,0,0-4.273,4.172v1.3Z"/><path class="b" d="M192.577,163.967a4.7,4.7,0,0,0-4.514,4.992v8.446a1.046,1.046,0,0,1-1.128.889,1.034,1.034,0,0,1-1.095-.889V162.941c0-.479.479-.821,1.095-.821.581,0,1.06.342,1.06.821v1.676a5.233,5.233,0,0,1,4.582-2.7h1.2a1.036,1.036,0,0,1,0,2.052Z"/><path class="b" d="M199.726,155.9a1.475,1.475,0,0,1-1.47,1.436,1.514,1.514,0,0,1-1.539-1.436,1.487,1.487,0,0,1,1.539-1.4A1.446,1.446,0,0,1,199.726,155.9Zm-.342,7.044v14.464a1.071,1.071,0,0,1-1.128.889,1.034,1.034,0,0,1-1.095-.889V162.941c0-.479.479-.821,1.095-.821S199.384,162.462,199.384,162.941Z"/><path class="b" d="M216.037,168.31v3.727a6.5,6.5,0,0,1-12.994,0V168.31a6.5,6.5,0,0,1,12.994,0Zm-2.223,0a4.456,4.456,0,0,0-4.309-4.343,4.4,4.4,0,0,0-4.24,4.343v3.727a4.278,4.278,0,1,0,8.549,0Z"/><path class="b" d="M226.435,163.967a4.7,4.7,0,0,0-4.514,4.992v8.446a1.046,1.046,0,0,1-1.128.889,1.034,1.034,0,0,1-1.095-.889V162.941c0-.479.479-.821,1.095-.821.581,0,1.06.342,1.06.821v1.676a5.233,5.233,0,0,1,4.582-2.7h1.2a1.036,1.036,0,0,1,0,2.052Z"/><path class="b" d="M248.664,168.515v8.891c0,.513-.445.889-1.094.889a.942.942,0,0,1-1.026-.889v-1.5a6.835,6.835,0,0,1-5.163,2.633c-2.6,0-4.65-1.436-4.65-4.514,0-3.727,3.214-4.685,7.967-4.685h1.744v-.821c0-2.188-1.094-4.65-4.035-4.65-2.291,0-3.111.991-3.658.991-.582,0-.89-.684-.89-1.2,0-.889,2.428-1.744,4.616-1.744C247.057,161.915,248.664,165.1,248.664,168.515Zm-2.223,2.359H245c-3.146,0-6.052.308-6.052,2.941a2.659,2.659,0,0,0,2.975,2.838c2.188,0,4.514-2.052,4.514-3.591Z"/><path class="b" d="M254.991,162.941v1.573a5.184,5.184,0,0,1,4.582-2.6,6.293,6.293,0,0,1,6.155,6.395v3.727c0,3.385-2.838,6.5-6.053,6.5a5.346,5.346,0,0,1-4.616-2.633v9.472a1.049,1.049,0,0,1-1.128.855,1.036,1.036,0,0,1-1.095-.855V162.941c0-.479.479-.821,1.095-.821C254.513,162.12,254.991,162.462,254.991,162.941Zm8.515,5.369a4.481,4.481,0,0,0-4.309-4.343,4.176,4.176,0,0,0-4.138,4.343V173.1c0,1.026,1.778,3.385,4.206,3.385a4.541,4.541,0,0,0,4.24-4.445Z"/><path class="b" d="M271.544,162.941v1.573a5.184,5.184,0,0,1,4.582-2.6,6.293,6.293,0,0,1,6.155,6.395v3.727c0,3.385-2.838,6.5-6.053,6.5a5.346,5.346,0,0,1-4.616-2.633v9.472a1.049,1.049,0,0,1-1.128.855,1.036,1.036,0,0,1-1.095-.855V162.941c0-.479.479-.821,1.095-.821C271.065,162.12,271.544,162.462,271.544,162.941Zm8.515,5.369a4.481,4.481,0,0,0-4.309-4.343,4.176,4.176,0,0,0-4.138,4.343V173.1c0,1.026,1.778,3.385,4.206,3.385a4.541,4.541,0,0,0,4.24-4.445Z"/><path class="b" d="M293.738,174.225c0-4.548-8.445-1.983-8.445-7.66,0-2.188,1.5-4.651,5.4-4.651,2.257,0,4.582.855,4.582,1.676,0,.376-.376,1.163-.923,1.163s-1.607-.957-3.625-.957c-2.53,0-3.419,1.539-3.419,2.667,0,3.9,8.48,1.436,8.48,7.66,0,2.7-2.018,4.411-5.506,4.411-3.215,0-5.369-1.436-5.369-2.462,0-.445.342-1.026.787-1.026.752,0,1.436,1.607,4.514,1.607C292.815,176.653,293.738,175.525,293.738,174.225Z"/></svg>