<svg xmlns="http://www.w3.org/2000/svg" viewBox="0 0 128 128"><title>icon-ios</title><path d="M2.66,51.089H13.616v49.191H2.66Z"/><path d="M51.851,31.636c-16.1,0-29.291,12.521-29.291,35.1s13.192,35.1,29.291,35.1,29.067-15.2,29.067-35.1c0-22.136-12.745-35.1-29.067-35.1Zm.224,9.838c9.391,0,17.217,13.416,17.217,27.055-.224,13.416-7.826,23.925-17.217,23.925S34.41,83.286,34.41,67.187c0-16.77,8.273-25.713,17.664-25.713Z"/><path d="M15.181,38.12a6.836,6.836,0,0,1-7.155,6.708A6.974,6.974,0,0,1,.871,38.12a6.836,6.836,0,0,1,7.155-6.708,6.836,6.836,0,0,1,7.155,6.708Z"/><path d="M88.52,86.417A31.247,31.247,0,0,0,104.4,90.888c8.944-.224,10.732-5.59,10.509-10.285s-6.261-8.273-14.31-11.18c-10.285-3.578-14.534-14.981-13.416-23.03,1.342-8.049,11.4-14.981,23.03-14.31,11.4.447,14.086,3.577,14.086,3.577l-2.683,10.285S115.8,41.474,110.879,41.7c-4.7.224-11.85,2.683-12.3,6.931-.447,4.472,3.354,8.5,8.72,11.4,5.366,2.46,20.347,8.273,19.676,21.912-.671,13.416-11.4,16.993-16.322,18.558s-13.639.224-17.44-.894-7.826-2.236-7.826-2.236l3.13-10.956Z"/></svg>