<svg xmlns="http://www.w3.org/2000/svg" viewBox="0 0 128 128"><title>icon-php</title><path d="M110.541,12.028a7.925,7.925,0,0,1,5.511,2.321,7.264,7.264,0,0,1,2.321,5.221v.29l-.29.87L109.671,97.6a7.027,7.027,0,0,1-4.351,7.542L71.672,121.384a7.4,7.4,0,0,1-6.962,0L30.481,104.56A6.77,6.77,0,0,1,27,101.079a5.154,5.154,0,0,1-1.16-2.9L17.428,20.73l-.58-.87v-.29a6.589,6.589,0,0,1,2.611-5.221,8.624,8.624,0,0,1,5.8-2.321Zm-79.189,64.4h6.672l1.45-7.542h6.091a10.269,10.269,0,0,0,8.7-3.481c2.611-2.321,3.771-5.8,3.771-9.862,0-4.931-2.9-7.542-8.412-7.832H36.863ZM41.214,63.66l1.74-10.733h4.351c2.9,0,4.351,1.16,4.351,3.191a11.166,11.166,0,0,1-1.74,5.511,10.093,10.093,0,0,1-4.351,2.031Zm15.374,5.221H63.26L66.45,52.928h5.221c1.16,0,1.74.29,2.031.87a2.453,2.453,0,0,1,0,2.03L71.091,68.882h7.252l2.611-14.5a5.214,5.214,0,0,0-1.16-4.641c-1.16-1.16-3.191-2.03-6.091-2.03H67.611l1.45-7.542H62.389Zm22.335,6.962h6.672l1.16-7.252h6.382a10.6,10.6,0,0,0,8.7-3.481,13.153,13.153,0,0,0,4.061-9.572c0-4.931-2.9-7.542-8.412-7.832H84.725ZM88.206,63.37l1.74-10.443H94.3c2.9,0,4.351,1.16,4.351,3.191a11.166,11.166,0,0,1-1.74,5.511,9.823,9.823,0,0,1-4.351,1.74Z"/></svg>