<svg xmlns="http://www.w3.org/2000/svg" viewBox="0 0 128 128"><title>icon-sketchup</title><path d="M85.637,8a.33.33,0,0,1,.337.337c6.069,5.394,12.474,10.452,18.543,15.846,6.406,5.394,12.474,10.789,18.88,16.183.337.337.337.337.337.674-1.349,7.754-2.7,15.846-4.046,23.6-1.686,9.44-3.371,18.88-4.72,28.32-.674,3.709-1.349,7.08-1.686,10.789a.33.33,0,0,1-.337.337c-10.452,2.7-20.9,5.732-31.355,8.429-16.183,4.383-32.029,8.429-48.212,12.812-.337,0-.674,0-.674-.337-5.394-13.823-10.789-27.983-15.846-41.806a12.12,12.12,0,0,1-.674-3.709c-1.011-5.057-1.686-10.452-2.7-15.509-.674-5.057-1.686-10.114-2.36-14.834-.674-5.057-1.686-10.114-2.36-14.834C6.745,29.24,6.07,24.183,5.059,19.126c0-.337,0-.674.337-.674A104.728,104.728,0,0,0,16.185,17.1c3.371-.337,7.08-1.011,10.452-1.349,3.709-.337,7.08-1.011,10.789-1.349,3.709-.674,7.417-1.011,11.463-1.349,3.709-.337,7.417-1.011,11.463-1.349,3.709-.337,7.417-1.011,11.463-1.686,3.371-.337,7.08-1.011,10.452-1.349A9.975,9.975,0,0,1,85.637,8ZM83.951,46.772h0C90.02,45.76,96.089,44.749,101.82,43.4c2.7-.337,5.394-1.011,8.092-1.349h.337v-.337h-.337c-9.1-7.754-17.869-15.172-26.972-22.926-.337-.337-.674-.337-1.349-.337-3.709.337-7.08,1.011-10.789,1.349-3.371.337-7.08,1.011-10.452,1.349-3.709.337-7.417,1.011-11.463,1.686-3.709.337-7.08,1.011-10.789,1.349s-7.417,1.011-11.463,1.349c-3.371.337-7.08,1.011-10.452,1.349-.337,0-.337,0-.337.337.337,2.7,1.011,5.057,1.349,7.754,0,.674,0,.674,1.011.674,3.034-.337,6.406-1.011,9.44-1.349,4.046-.674,8.092-1.011,12.137-1.686,4.383-.674,8.429-1.349,12.812-1.686,4.383-.674,9.1-1.349,13.486-2.023.337,0,.337,0,.674.337,2.023,2.023,3.709,4.046,5.731,6.069,3.371,3.709,7.08,7.417,10.452,11.126A2.61,2.61,0,0,0,83.951,46.772Zm-16.183.674h-.674c-3.709.674-7.08,1.349-10.789,1.686-5.057,1.011-10.114,1.686-15.172,2.7-5.394,1.011-10.789,1.686-16.183,2.7-1.349.337-2.36.337-3.709.674l-.337.337a7.935,7.935,0,0,0,.674,2.7c1.349,3.034,2.36,5.732,3.709,8.766a.33.33,0,0,0,.337.337l10.114-2.023c4.383-1.011,9.1-1.686,13.486-2.7.337,0,.674,0,.674.337,1.011,1.686,1.686,3.371,2.7,4.72,1.011,2.023,2.36,3.709,3.371,5.732a.725.725,0,0,0,.674.674c.337,0,.674,0,.674-.337l4.046-1.011c7.754-1.686,15.172-3.034,22.926-4.72.674,0,.674,0,.337-.674-2.36-3.034-5.057-6.069-7.417-9.1-3.034-3.709-6.069-7.08-8.766-10.789C68.106,47.783,68.106,47.783,67.768,47.446ZM52.26,84.2h0C44.505,85.881,36.751,87.23,29,88.578a.33.33,0,0,0-.337.337l5.057,13.149c0,.337.337.337.674.337,3.709-.674,7.08-1.686,10.789-2.36C49.9,99.03,54.62,98.018,59,96.67c.337,0,.674,0,.337-.337L52.26,84.2Z"/></svg>