<svg xmlns="http://www.w3.org/2000/svg" viewBox="0 0 128 128"><title>icon-node</title><path d="M65.969,127.135a13.258,13.258,0,0,1-4.956-.991l-15.2-8.921c-1.652-.991-1.982-1.652-.661-1.982a44.778,44.778,0,0,0,6.939-3.3c.33-.33.661,0,.991.33L64.978,119.2c.661.33.991.33,1.322,0l45.927-26.433q.991-.5.991-.991V37.593a.876.876,0,0,0-.991-.991L66.3,10.169c-.661-.33-.991-.33-1.322,0L19.051,36.6q-.991.5-.991.991V91.12a.876.876,0,0,0,.991.991L31.607,99.38c3.3,1.652,5.947,1.652,7.93.661a5.451,5.451,0,0,0,2.974-4.956V42.219c0-.991.33-1.322.991-1.322h5.947c.991,0,1.322.33,1.322,1.322V94.754a15.168,15.168,0,0,1-3.635,10.573c-2.313,2.313-5.617,3.635-9.912,3.635a22.375,22.375,0,0,1-10.573-2.974L14.425,99.05a9.233,9.233,0,0,1-4.956-8.591V37.593c0-3.635,1.652-6.278,4.956-8.26L61.013,2.239a10.532,10.532,0,0,1,9.912,0L116.853,29c3.3,1.982,4.956,4.626,4.956,8.26V90.79a9.581,9.581,0,0,1-4.956,8.591L70.926,125.813A10.946,10.946,0,0,1,65.969,127.135ZM55.727,73.278c0-.661.33-.991,1.322-.991H63c.661,0,1.322.33,1.322.991q.991,4.956,3.965,6.939T80.177,82.2c9.252,0,13.877-2.313,13.877-7.269a3.752,3.752,0,0,0-.991-2.643c-.661-.661-1.982-1.322-4.626-1.982a96.685,96.685,0,0,0-10.9-1.982C70.6,67.661,65.309,66.339,62,64.357s-4.956-5.287-4.956-10.243a11.926,11.926,0,0,1,5.617-10.573c3.635-2.643,8.921-3.965,15.529-3.965,14.538,0,22.138,5.287,23.129,16.19A1.168,1.168,0,0,1,100,57.087H94.054c-.661,0-1.322-.33-1.322-.991a9.8,9.8,0,0,0-4.3-6.608c-1.982-.991-5.617-1.652-10.243-1.652-7.93,0-11.895,1.982-11.895,6.278a3.984,3.984,0,0,0,2.643,3.965c1.652.661,6.278,1.652,13.216,2.313,7.6.991,13.216,2.643,16.19,4.626s4.626,5.287,4.626,9.912a13.155,13.155,0,0,1-5.947,11.564c-3.965,2.974-9.582,4.3-16.851,4.3C63.987,90.459,55.727,84.842,55.727,73.278Z"/></svg>