<svg xmlns="http://www.w3.org/2000/svg" viewBox="0 0 128 128"><title>icon-android</title><path d="M95.679,97.8a3.7,3.7,0,0,1-3.845,3.845H36.085A3.7,3.7,0,0,1,32.24,97.8V47.816a3.7,3.7,0,0,1,3.845-3.845H91.834a3.7,3.7,0,0,1,3.845,3.845Z"/><path d="M32.24,43.971H95.679V70.244H32.24Zm80.42,35.244a6.728,6.728,0,1,1-13.457,0V48.777a6.728,6.728,0,1,1,13.457,0Zm-83.944,0a6.57,6.57,0,0,1-6.728,6.728,6.57,6.57,0,0,1-6.728-6.728V48.777a6.57,6.57,0,0,1,6.728-6.728,6.57,6.57,0,0,1,6.728,6.728ZM63.96,13.533c-30.758,0-31.4,26.913-31.4,26.913H95.679C95.359,40.447,94.4,13.533,63.96,13.533ZM50.183,30.515a3.7,3.7,0,0,1-3.845-3.845,3.845,3.845,0,0,1,7.69,0A3.9,3.9,0,0,1,50.183,30.515Zm27.554,0a3.7,3.7,0,0,1-3.845-3.845,3.845,3.845,0,0,1,7.69,0A3.7,3.7,0,0,1,77.737,30.515Z"/><path d="M48.9,17.058h.641a.992.992,0,0,0,.32-.641L44.1,8.087h-.641a.992.992,0,0,0-.32.641Zm29.8,0h-.641a.992.992,0,0,1-.32-.641L83.5,8.087h.641a.992.992,0,0,1,.32.641Z"/><path d="M83.825,118.3a6.728,6.728,0,0,1-13.457,0V87.866A6.57,6.57,0,0,1,77.1,81.137a7.055,7.055,0,0,1,6.728,7.049Zm-26.273,0a6.728,6.728,0,0,1-13.457,0V87.866a6.728,6.728,0,0,1,13.457,0Z"/></svg>