<svg xmlns="http://www.w3.org/2000/svg" viewBox="0 0 128 128"><title>icon-blender</title><path d="M40.089,75c-2.759,2.213-5.235,4.2-7.706,6.184C26.735,85.728,21.111,90.3,15.435,94.808A8.492,8.492,0,0,1,7.5,96.58C3.077,95.326.907,90.516,3.332,86.61A22.4,22.4,0,0,1,8.5,80.9C21.727,70.573,35.062,60.385,48.36,50.149c.587-.452,1.153-.929,2.189-1.765-1.279-.057-2.064-.122-2.849-.123q-9.849-.012-19.7,0c-.534,0-1.069.01-1.6,0-3.387-.092-5.739-1.582-6.255-3.957a6.089,6.089,0,0,1,4.076-7.1,22.179,22.179,0,0,1,7.316-1.47c14.2-.14,28.4-.077,42.6-.082h3.208c-3.188-2.593-5.852-4.765-8.521-6.93-1.893-1.535-3.8-3.053-5.688-4.593-2.582-2.105-3.5-4.262-2.691-6.241,1-2.437,4.623-4.575,7.381-3.86A18.223,18.223,0,0,1,74.2,16.872q19.118,14.523,38.014,29.336c19.9,15.659,16.329,42.867,1.513,56.545-11.009,10.164-24.268,13.205-38.861,11.01a41.12,41.12,0,0,1-21.152-9.594,37.329,37.329,0,0,1-13.474-27.5C40.218,76.249,40.163,75.826,40.089,75ZM82.765,95.71a26.54,26.54,0,0,0,17.7-6.885c8.543-7.334,10.7-18.481,5.389-27.584A26.743,26.743,0,0,0,64.3,55.609c-5.768,5.609-8.722,12.3-6.872,20.436C59.961,87.2,71,95.678,82.765,95.71Z"/><path d="M83.273,55.648c8.751-.234,16.926,6.916,17.192,15.036.269,8.216-7.685,15.859-16.743,16.088-8.548.216-16.731-7.148-17-15.3C66.455,63.243,74.14,55.892,83.273,55.648Z"/></svg>