<?xml version="1.0" encoding="utf-8"?>
<!-- Generator: Adobe Illustrator 21.1.0, SVG Export Plug-In . SVG Version: 6.00 Build 0)  -->
<svg version="1.1" id="Layer_1" xmlns="http://www.w3.org/2000/svg" xmlns:xlink="http://www.w3.org/1999/xlink" x="0px" y="0px"
	 viewBox="0 0 1200.2 1004.1" style="enable-background:new 0 0 1200.2 1004.1;" xml:space="preserve">
<style type="text/css">
	.st0{fill:#1E1E1E;}
</style>
<path class="st0" d="M600.3,204.2c11.5-13.6,22.7-26.8,33.9-40c26.5-31.1,53.6-61.6,84.8-88.2c39.8-33.9,84.4-59.1,136.1-69
	c106.9-20.4,200,5.5,274.7,86.8c39.8,43.3,62.4,95.4,68.4,153.9c8.6,83.7-10.3,161.3-53.2,233.5c-27.3,45.9-60.7,87.1-96.8,126.3
	C993.7,666.9,934.4,721.4,874,774.6c-89,78.5-180.8,153.6-272.6,228.7c-0.3,0.2-0.6,0.4-1.3,0.8c-7.2-5.9-14.6-11.7-21.8-17.8
	C497.4,918.5,416,851.1,335.7,782.5c-60.8-52-119.4-106.5-174.1-164.9C122.5,576,86,532.3,56.6,483.1c-27.5-46-46.2-95.1-53-148.4
	c-7-54.9-4.9-109,17.2-160.5C61.2,79.6,132.4,21.7,233.9,4.5c85.2-14.4,162.9,6.3,231.8,58.8c30.9,23.6,57.5,51.5,83.1,80.6
	C566,163.6,582.8,183.7,600.3,204.2z"/>
</svg>
