<svg xmlns="http://www.w3.org/2000/svg" viewBox="0 0 128 128"><title>icon-vr</title><path d="M125.747,63.288V89.333c0,6.827-3.287,10.367-10.114,10.367h-31.1c-4.046,0-6.574-1.77-7.839-5.563-1.77-5.057-3.54-9.862-5.31-14.919-1.264-3.793-3.793-6.069-7.839-6.069-3.793,0-6.322,2.276-7.586,5.816-2.023,5.31-4.3,10.367-6.322,15.677-1.264,3.54-3.54,5.057-7.08,5.057h-31.1c-6.069,0-9.609-3.54-9.609-9.609V37.243c0-6.069,3.54-9.609,9.862-9.609H116.138Q126,27.635,126,37.5C125.747,45.841,125.747,54.438,125.747,63.288Zm-35.4,15.93A13.385,13.385,0,0,0,104,65.817a13.781,13.781,0,1,0-27.562-.253A14.336,14.336,0,0,0,90.347,79.218Zm-53.354,0a13.656,13.656,0,1,0,.253-27.309,13.656,13.656,0,0,0-.253,27.309Z"/></svg>