<svg xmlns="http://www.w3.org/2000/svg" viewBox="0 0 128 128"><title>icon-matterport</title><path d="M54.792,87.943H49.629c-.258,0-.774-.258-.774-.516v-3.1c0-1.033-.774-1.549-1.807-1.549H30.011a49.61,49.61,0,0,1-6.2,0,24.535,24.535,0,0,1-4.646-1.549A10.212,10.212,0,0,1,15.3,78.65c-1.291-1.033-2.839-1.807-2.839-3.614V10.5c.258-.516,0-1.549,1.291-1.033.774.258,1.291,0,2.323,0h70.47c2.839,0,5.163,0,8,.258,2.323,0,5.163,0,7.744-.258h2.839c.258,0,.774,1.033,1.033,1.291V15.15a4.393,4.393,0,0,0,.258,1.807,4.376,4.376,0,0,0,2.065,1.549c1.291.516,2.323,1.291,3.872,1.807a19.607,19.607,0,0,1,2.839,1.033,13.348,13.348,0,0,0,3.356,1.549c1.291.516,1.291,1.549,1.291,2.839V56.709a45.566,45.566,0,0,0,0,5.937,1.728,1.728,0,0,1-1.033,1.807c-1.807,1.033-3.356,2.065-5.679,3.356-2.065,1.291-3.872,2.065-5.937,3.356a2.621,2.621,0,0,0-1.291,2.581v7.486c0,1.033-.258,1.549-1.807,1.549H83.961c-2.839,0-5.163,0-8-.258a14.719,14.719,0,0,0-3.356.258,1.152,1.152,0,0,0-.774,1.033v3.356A.946.946,0,0,1,70.8,88.2a12.568,12.568,0,0,0-3.1.258c-.258,0-.774,1.033-.774,1.291a14.394,14.394,0,0,0,1.807,4.13c.774,1.549,1.033,3.1,1.807,4.646.258,1.291,1.033,2.065,1.291,3.1s.774,1.807,1.033,3.1c.258,1.033,1.033,1.807,1.291,2.839a5.466,5.466,0,0,1,.774,1.807c.258,1.033.774,2.065,1.033,3.1s.774,1.807,1.033,2.839,1.033,2.065,1.291,3.1.774,1.807,1.033,2.839c1.033,1.291,0,2.065-.774,2.839a2.755,2.755,0,0,1-4.646-1.033c-.774-1.549-1.033-3.1-1.807-4.388a28.612,28.612,0,0,1-2.323-4.9c-.774-1.549-1.033-3.1-1.807-4.646-.258-1.033-1.033-1.807-1.291-2.839s-.774-2.065-1.033-3.1-1.033-1.807-1.291-2.839a15.328,15.328,0,0,1-1.033-2.065c-.774-1.549-1.033-3.1-1.807-4.646A1.3,1.3,0,0,0,59.7,92.589h0c-.258,1.033-1.033,2.065-1.291,3.1l-1.033,2.065c-.258,1.033-1.033,1.549-1.291,2.581a4.929,4.929,0,0,0-.774,2.065c-.258,1.033-.774,1.807-1.033,3.1a23.985,23.985,0,0,1-1.291,2.581c-.258,1.033-.774,1.807-1.033,2.839A26.78,26.78,0,0,1,50.92,113.5c-.258,1.291-1.033,2.065-1.291,3.356a8.074,8.074,0,0,1-1.291,2.581c-.258,1.033-1.033,1.549-1.033,2.581a4.114,4.114,0,0,1-2.323,3.1c-.258,0-.258.258-.774.258a3.589,3.589,0,0,1-3.1-2.581c-.258-1.549.774-2.839,1.291-4.388.258-1.033.774-1.807,1.033-2.839a26.878,26.878,0,0,1,1.291-3.1l1.033-2.065a37.328,37.328,0,0,0,2.323-5.679c.774-1.549,1.033-3.1,1.807-4.646s1.291-3.1,2.065-4.388c.258-1.033.774-1.807,1.033-2.839a26.78,26.78,0,0,1,1.033-2.581,3.439,3.439,0,0,0,.774-2.323ZM31.56,77.1h0V72.455c0-.258.258-.516.258-1.033.258-.258,1.033-.516,1.807-1.033.258-.258.258-1.033.258-1.291s-.774-.516-1.033-.516c-2.065-.258-3.356.516-4.9,1.807-1.291,1.291-1.807,3.614-.258,4.9A6.167,6.167,0,0,0,31.044,77.1h0c0,.516,0,.516.516,0C31.044,77.618,31.044,77.1,31.56,77.1Zm1.033-4.13Zm3.872-2.323ZM32.593,77.1c.258,0,1.033,0,1.291-.258.774-.258,2.065-1.033,2.065-1.549a22.076,22.076,0,0,0,0-4.13c0-.258-.258-.516-.774-.516s-.774.258-.774.516a6.844,6.844,0,0,1-1.291,1.549c-.258.258-1.033.516-1.033,1.033a21.468,21.468,0,0,1,.516,3.356ZM65.634,63.678H91.447c2.323,0,4.646-.258,6.2-1.549a7.466,7.466,0,0,0,2.839-2.839,8.484,8.484,0,0,0,1.033-4.388c-.258-3.356,0-6.711,0-10.325a103.973,103.973,0,0,0-.774-12.649,9.679,9.679,0,0,0-.258-2.839c-1.033-1.807-2.065-3.614-4.646-4.646-1.807-.516-3.1-1.549-4.9-1.807a49.739,49.739,0,0,0-6.2-.258H55.825c-7.744.258-15.23-1.033-22.974,1.033a10.656,10.656,0,0,0-3.872,1.807A37.38,37.38,0,0,0,24.332,29.6a8.246,8.246,0,0,0-2.839,6.2v12.39a4.656,4.656,0,0,0,.774,3.1,18.637,18.637,0,0,0,4.646,6.2c1.807,1.807,3.356,4.13,6.2,4.646,1.807.258,3.1,1.291,4.9,1.291C47.048,63.678,56.6,63.678,65.634,63.678ZM109,44.577V56.709c0,1.807-.258,3.614,1.033,5.163a3.078,3.078,0,0,0,3.872.516c1.033-.258,1.807-1.033,1.291-2.065V27.8a4.393,4.393,0,0,0-.258-1.807c-.258-1.291-2.323-2.065-3.872-1.549A3.065,3.065,0,0,0,109,27.024a49.611,49.611,0,0,0,0,6.2C109,37.091,109,40.963,109,44.577ZM34.658,70.906h0a2.6,2.6,0,0,0-.774.258h.258C34.4,71.422,34.4,70.906,34.658,70.906ZM66.924,87.943h0c-.258,0-.258,0-.774.258v.258C66.666,88.459,66.666,87.943,66.924,87.943Zm11.1,35.106ZM34.916,70.39h0c-.258.258,0,.258,0,0ZM61.762,91.557ZM48.6,82.522Zm-2.839-.258ZM31.818,77.1Zm13.165,45.948Zm-19.1-95.767Zm-1.033,1.033Z"/><path d="M96.61,30.379a2.14,2.14,0,0,1,.774,2.065V44.577a59.575,59.575,0,0,0,.774,9.551A1.951,1.951,0,0,1,97.9,55.16a6.113,6.113,0,0,1-3.1,4.646c-.258,0-.774.258-1.033.258H36.465c-1.033,0-2.323-1.033-3.356-1.549-.258-.258-.774-.516-1.033-1.033h0l-.258-.258h0v.258h0c-1.033-1.033-1.807-1.549-2.839-2.581-1.033-1.291-2.065-2.581-2.839-3.614a13.25,13.25,0,0,1-1.033-2.581v-6.2c0-1.291.258-2.839.258-4.13v-3.1c0-1.549,1.033-2.839,2.065-4.13.258-.258.774-1.033,1.033-1.291h0c1.033-.516,2.065-1.549,3.1-2.065.774-.258,2.065-.516,3.356-1.033a23.113,23.113,0,0,1,5.937-.516H71.829c4.9,0,10.067,0,14.972.258A11.766,11.766,0,0,1,92.738,27.8a21.532,21.532,0,0,1,3.1,2.065c.258-.516.774,0,.774.516ZM48.081,51.288h0l.258.258A8.683,8.683,0,0,0,59.18,50c1.807-2.065,1.807-6.711-1.807-8v-.516c2.323-1.807,2.839-4.646.774-6.711-1.291-1.291-3.1-1.549-5.163-1.549-3.1,0-5.163,1.549-5.937,4.13-.258.516-.258,1.033.774,1.033.774,0,1.291.258,2.065.258.258,0,1.033.258,1.033-.516,0-.258.774-1.033,1.033-1.291a2.137,2.137,0,0,1,3.356,1.033A2.419,2.419,0,0,1,53.243,40.7c-.258,0-1.033.258-1.033.516a5.684,5.684,0,0,0-.258,2.065l.258.258c1.291,0,2.839-.258,3.356,1.033a6.112,6.112,0,0,1,.774,2.581c0,1.291-1.033,2.581-2.065,2.581-1.807.258-3.1-.258-3.356-1.807-.258-1.033-.774-1.033-1.291-1.033-.774,0-1.807.258-2.323.258l-.258.258c.774,1.033,1.033,2.065,1.807,3.1-1.033.258-1.033.258-.774.774ZM63.568,42.77v8.777c0,1.033.258,1.291,1.291,1.291,3.1,0,5.937,0,9.035-.258a6.529,6.529,0,0,0,5.679-2.839,11.992,11.992,0,0,0,1.291-10.583,6.372,6.372,0,0,0-6.2-5.163c-3.356-.258-6.97,0-10.325,0a.9.9,0,0,0-.258.516A40.44,40.44,0,0,0,63.568,42.77ZM36.981,25.991h0c.516.258.516,0,0,0Zm-.516.258Zm42.076,0h0c-.516,0,0,.516,0,0Zm-44.657.774Zm-5.163,3.1h0c-.258,0-.258.258,0,0Zm25.3,7.486Zm4.646,3.614Zm-4.13,3.356ZM25.623,48.449Z"/><path d="M26.914,27.8c0-.258.516-.258,0,0h0c.516-.258,0-.258,0,0Z"/><path d="M67.957,42.77V37.607a.946.946,0,0,1,1.033-1.033h3.1a4.086,4.086,0,0,1,4.646,4.13,45.7,45.7,0,0,1-.258,5.937c-.258,1.807-1.807,2.581-3.872,2.581a14.719,14.719,0,0,0-3.356.258c-.774,0-1.033-.258-1.033-1.033A43.753,43.753,0,0,1,67.957,42.77Z"/><path d="M48.855,50.256,48.6,50h0c0,.258,0,.258.258.258Z"/><path d="M48.6,51.288Z"/></svg>