<?xml version="1.0" encoding="utf-8"?>
<!-- Generator: Adobe Illustrator 18.0.0, SVG Export Plug-In . SVG Version: 6.00 Build 0)  -->
<!DOCTYPE svg PUBLIC "-//W3C//DTD SVG 1.1//EN" "http://www.w3.org/Graphics/SVG/1.1/DTD/svg11.dtd">
<svg version="1.1" id="Layer_1" xmlns="http://www.w3.org/2000/svg" xmlns:xlink="http://www.w3.org/1999/xlink" x="0px" y="0px"
	 width="250px" height="250px" viewBox="0 0 250 250" enable-background="new 0 0 250 250" xml:space="preserve">
<g id="a12">
	<path d="M234.5,193V180l-4-7.4v25.3C232.3,196.9,234.2,195,234.5,193z"/>
</g>
<g id="a11">
	<path d="M222.6,157.7v42.4c1.3,0,2.6-0.2,4-0.6v-34.4L222.6,157.7z"/>
</g>
<g id="a10">
	<path d="M214.6,142.9v54.9c1.2,0.7,2.5,1.3,4,1.7v-49.2L214.6,142.9z"/>
</g>
<g id="a9">
	<path d="M206.6,128.1v59.3l3.4,6.7c0,0,0.2,0.3,0.6,0.7v-59.2L206.6,128.1z"/>
</g>
<g id="a8">
	<polygon points="202.6,179.4 202.6,120.6 198.6,113.2 198.6,171.5 202.6,179.4 	"/>
</g>
<g id="a7">
	<polygon points="192.4,164.6 194.6,163.6 194.6,105.8 190.6,98.4 190.6,165.4 192.4,164.6 	"/>
</g>
<g id="a6">
	<polygon points="182.6,137.8 182.6,168.9 186.6,167.2 186.6,91 182.6,83.6 182.6,137 182.6,137.8 	"/>
</g>
<g id="a5">
	<polygon points="178.6,76.2 174.6,68.8 174.6,122.1 178.6,129.5 178.6,76.2 	"/>
	<polygon points="178.6,139.5 174.6,141.3 174.6,172.5 178.6,170.7 178.6,139.5 	"/>
</g>
<g id="a4">
	<polygon points="170.7,61.3 166.7,53.9 166.7,107.3 170.7,114.7 170.7,61.3 	"/>
	<polygon points="170.7,143 166.7,144.8 166.7,176.1 170.7,174.3 170.7,143 	"/>
</g>
<g id="a3">
	<polygon points="162.7,46.5 158.7,39.1 158.7,92.4 162.7,99.8 162.7,46.5 	"/>
	<polygon points="162.7,146.6 158.7,148.3 158.7,179.6 162.7,177.8 162.7,146.6 	"/>
</g>
<g id="a2">
	<polygon points="154.7,150.1 150.7,151.8 150.7,183.2 154.7,181.4 154.7,150.1 	"/>
	<polygon points="154.7,31.7 150.7,24.3 150.7,77.5 154.7,85 154.7,31.7 	"/>
</g>
<g id="a1">
	<path d="M146.7,16.9l-4-7.4c0,0,0,0,0,0v53.2l4,7.4V16.9L146.7,16.9z"/>
	<polygon points="146.7,153.6 142.7,155.3 142.7,186.7 146.7,184.9 146.7,153.6 	"/>
</g>
<g id="a0">
	<path d="M130.6,0h-10.8c-5.4,0-10.2,3.8-12.5,9.4l-92,171.7c0,0-6.3,12.3,4,18s17.6-0.5,20.2-5.3c2.6-4.8,15.9-29.8,15.9-29.8
		l55,24.3v46.5v0.8c0.1,3.1,1.2,14.3,13.7,14.3c13.5,0,14.1-13.5,14.1-13.5V3.9C136.5,1.3,133.7,0,130.6,0z M110.5,157l-44.2-19.5
		l44.2-82.3V157z"/>
</g>
</svg>
